<svg id="vector" xmlns="http://www.w3.org/2000/svg" width="108" height="108" viewBox="0 0 1024 1024"><g transform="translation(0, 157.5961)" id="g_0"><path fill="#ed1b2e" d="M877.5,356.5a5476.8,5476.8 0,0 0,-1 148h-53c-57,-0.3 -114,-0.8 -171,-1.5 -30.2,-0.3 -59.6,-5.3 -88,-15 -13.1,-5.1 -23.9,-13.3 -32.5,-24.5 -2.7,-4.4 -4.5,-9 -5.5,-14a77.8,77.8 0,0 1,1 -29c4.2,-10.7 10.8,-19.5 20,-26.5 12.3,-8.7 25.7,-15.5 40,-20.5 -15.6,-11.7 -32.9,-15.2 -52,-10.5 -29,3.9 -52.9,17.1 -71.5,39.5a429.2,429.2 0,0 1,-42.5 49.5c-16.2,12.8 -34.2,22.4 -54,29a463.3,463.3 0,0 1,-50 13.5c-6.2,0.6 -12.2,1.6 -18,3h-1c-4.6,-0.2 -8.9,0.4 -13,2a597.7,597.7 0,0 1,-28 2,4891.9 4891.9,0 0,1 -122,3h-10v-1c1.3,-24.2 2,-48.7 2,-73.5 0,-24.8 -0.7,-49.3 -2,-73.5v-18h211v-216h331c0.3,71.9 -0,143.7 -1,215.5 70.3,0.5 140.7,0.7 211,0.5v18Z" stroke-opacity="0.996" fill-opacity="0.996"/><path fill="#fefdfd" d="M527.5,420.5c-2.5,4.7 -3.5,9.9 -3,15.5 -0.2,4.8 0.5,9.3 2,13.5 1,5 2.8,9.6 5.5,14 8.6,11.2 19.4,19.4 32.5,24.5 28.4,9.7 57.8,14.7 88,15 57,0.7 114,1.2 171,1.5a729.5,729.5 0,0 0,54 1v37h-246c-35.5,-2.6 -69.5,-11.4 -102,-26.5 -23.8,-13.8 -40.5,-33.6 -50,-59.5 -30.5,33.4 -67.8,55.9 -112,67.5a695.9,695.9 0,0 1,-46 10.5c-5.2,-0.1 -10.2,0.6 -15,2a996.3,996.3 0,0 1,-64 5.5c-39,0.5 -78,0.7 -117,0.5v-38h10c33.7,0.2 67.3,0 101,-0.5 7.2,-0.2 14.2,-1 21,-2.5a597.7,597.7 0,0 0,28 -2c4.6,0.2 8.9,-0.4 13,-2h1c6.3,0.1 12.3,-0.9 18,-3a463.3,463.3 0,0 0,50 -13.5c19.8,-6.6 37.8,-16.2 54,-29a429.2,429.2 0,0 0,42.5 -49.5c18.6,-22.4 42.5,-35.6 71.5,-39.5 19.1,-4.7 36.4,-1.2 52,10.5 -14.3,5 -27.7,11.8 -40,20.5 -9.2,7 -15.8,15.8 -20,26.5Z" stroke-opacity="0.999" fill-opacity="0.999"/><path fill="#0053a0" d="M631.5,542.5c-10.6,0.2 -10.6,0.7 0,1.5 81.7,0.5 163.3,0.7 245,0.5 -0.3,1.6 0.1,2.9 1,4v135c-70.3,-0.2 -140.7,0 -211,0.5 1,72.1 1.3,144.3 1,216.5h-331v-217h-211v-141c39,0.2 78,0 117,-0.5a996.3,996.3 0,0 0,64 -5.5c5.2,0.1 10.2,-0.6 15,-2a695.9,695.9 0,0 0,46 -10.5c44.2,-11.6 81.5,-34.1 112,-67.5 9.5,25.9 26.2,45.7 50,59.5 32.5,15.1 66.5,23.9 102,26.5Z" stroke-opacity="0.993" fill-opacity="0.993"/></g></svg>