<?xml version="1.0" encoding="UTF-8"?>
<svg xmlns="http://www.w3.org/2000/svg" xmlns:xlink="http://www.w3.org/1999/xlink" width="1008px" height="1000px" viewBox="0 0 504 500" version="1.1">
<g id="surface1">
<rect x="0" y="0" width="504" height="500" style="fill:rgb(92.54902%,14.509804%,15.294118%);fill-opacity:1;stroke:none;"/>
<path style=" stroke:none;fill-rule:nonzero;fill:rgb(100%,100%,100%);fill-opacity:1;" d="M 8.15625 344.921875 L 8.15625 152.566406 L 157.820312 152.574219 L 158.265625 5.339844 L 346.753906 5.339844 L 346.753906 152.566406 L 495.699219 152.566406 L 495.699219 345.824219 L 346.753906 345.824219 L 346.753906 493.867188 L 158.542969 493.867188 L 158.542969 344.480469 L 8.15625 344.921875 "/>
<path style=" stroke:none;fill-rule:nonzero;fill:rgb(5.098039%,33.333333%,63.137255%);fill-opacity:1;" d="M 24.90625 260.65625 L 38.195312 196.761719 L 52.480469 196.761719 L 41.445312 248.285156 L 69.015625 248.285156 L 66.558594 260.65625 L 24.90625 260.65625 "/>
<path style=" stroke:none;fill-rule:nonzero;fill:rgb(5.098039%,33.333333%,63.137255%);fill-opacity:1;" d="M 69.808594 260.65625 L 80.136719 212.960938 L 92.421875 212.960938 L 82.34375 260.65625 L 69.808594 260.65625 "/>
<path style=" stroke:none;fill-rule:nonzero;fill:rgb(5.098039%,33.333333%,63.137255%);fill-opacity:1;" d="M 81.113281 207.589844 L 84.34375 192.804688 L 96.171875 192.804688 L 93.171875 207.589844 L 81.113281 207.589844 "/>
<path style=" stroke:none;fill-rule:nonzero;fill:rgb(5.098039%,33.333333%,63.137255%);fill-opacity:1;" d="M 91.757812 260.65625 L 103.835938 201.425781 L 105.042969 197.925781 L 106.042969 195.761719 L 108.707031 194.011719 L 111.167969 192.804688 L 129.703125 192.804688 L 127.496094 203.839844 L 117.621094 203.632812 L 116.621094 203.839844 L 115.664062 204.882812 L 113.914062 212.960938 L 125.246094 212.960938 L 123.039062 223.582031 L 111.957031 223.375 L 104.042969 260.65625 L 91.757812 260.65625 "/>
<path style=" stroke:none;fill-rule:nonzero;fill:rgb(5.098039%,33.333333%,63.137255%);fill-opacity:1;" d="M 127.703125 219.875 L 128.746094 216.667969 L 130.453125 214.753906 L 132.160156 213.753906 L 173.058594 213.753906 L 173.851562 214.753906 L 174.601562 216.734375 L 174.601562 217.710938 L 171.144531 236.890625 L 170.644531 240.621094 L 140.78125 240.621094 L 142.03125 232.996094 L 160.023438 233.246094 L 161.023438 230.746094 L 162.230469 226.8125 L 162.273438 224.628906 L 160.730469 223.375 L 141.488281 223.375 L 138.324219 225.789062 L 134.160156 247.035156 L 134.367188 249.285156 L 135.367188 250.210938 L 167.144531 250.210938 L 164.730469 260.65625 L 125.285156 260.65625 L 123.039062 260.027344 L 121.765625 259.09375 L 120.789062 257.699219 L 120.789062 251.351562 L 127.703125 219.875 "/>
<path style=" stroke:none;fill-rule:nonzero;fill:rgb(5.098039%,33.333333%,63.137255%);fill-opacity:1;" d="M 190.347656 212.960938 L 230.832031 212.960938 L 218.917969 272.855469 L 218.203125 275.855469 L 216.757812 277.769531 L 215.300781 279.398438 L 212.546875 280.726562 L 171.644531 280.726562 L 174.601562 269.027344 L 206.175781 269.035156 L 207.617188 267.507812 L 216.460938 224.375 L 195.011719 224.585938 L 193.84375 225.542969 L 193.054688 227.539062 L 189.136719 246.761719 L 188.847656 248.285156 L 189.324219 249.46875 L 189.886719 250.210938 L 206.382812 250.210938 L 203.703125 260.65625 L 179.988281 260.65625 L 178.015625 260.0625 L 176.824219 259.09375 L 176.074219 258.09375 L 175.765625 255.09375 L 176.058594 249.46875 L 177.03125 245.339844 L 183.183594 217.941406 L 183.960938 216.691406 L 184.710938 215.46875 L 185.929688 214.691406 L 187.125 213.753906 L 188.875 213.277344 L 190.347656 212.960938 "/>
<path style=" stroke:none;fill-rule:nonzero;fill:rgb(5.098039%,33.333333%,63.137255%);fill-opacity:1;" d="M 266.839844 256.65625 L 266.796875 261.046875 L 278.605469 261.046875 L 287.519531 213.527344 L 275.648438 213.527344 L 267.777344 249.21875 L 265.882812 250.210938 L 246.160156 250.210938 L 245.074219 248.96875 L 245.074219 246.261719 L 252 213.527344 L 239.203125 213.527344 L 231.308594 251.21875 L 231.308594 257.136719 L 232.332031 259.09375 L 233.308594 260.089844 L 235.203125 261.046875 L 260.320312 261.046875 L 261.925781 260.527344 L 263.363281 259.589844 L 264.820312 258.59375 L 265.882812 257.570312 L 266.839844 256.65625 "/>
<path style=" stroke:none;fill-rule:nonzero;fill:rgb(5.098039%,33.333333%,63.137255%);fill-opacity:1;" d="M 303.304688 239.371094 L 302.304688 239.910156 L 301.78125 241.597656 L 301.28125 248.285156 L 301.28125 249.011719 L 302.292969 250.210938 L 323.941406 250.210938 L 324.066406 248.285156 L 329.003906 225.605469 L 329.003906 224.375 L 328.898438 223.582031 L 295.476562 223.582031 L 297.804688 213.527344 L 337.3125 213.027344 L 339.769531 213.527344 L 340.789062 214.503906 L 341.769531 215.691406 L 342.246094 216.734375 L 342.246094 221.648438 L 341.726562 224.332031 L 334.789062 259.675781 L 333.398438 261.046875 L 291.976562 261.046875 L 290.496094 260.113281 L 288.539062 259.050781 L 287.519531 257.65625 L 287.519531 252.28125 L 291.515625 235.664062 L 292.933594 233.457031 L 294.375 232.507812 L 295.847656 231.769531 L 297.390625 231.476562 L 323.046875 231.476562 L 321.066406 239.597656 L 303.304688 239.371094 "/>
<path style=" stroke:none;fill-rule:nonzero;fill:rgb(5.098039%,33.333333%,63.137255%);fill-opacity:1;" d="M 352.148438 213.519531 L 364.476562 213.519531 L 364.476562 216.683594 L 365.421875 215.742188 L 366.863281 214.710938 L 368.363281 213.988281 L 369.890625 213.519531 L 385.609375 213.519531 L 383.609375 224.570312 L 364.863281 224.570312 L 363.421875 225.347656 L 362.03125 226.8125 L 355.535156 261.046875 L 342.246094 261.046875 L 352.148438 213.519531 "/>
<path style=" stroke:none;fill-rule:nonzero;fill:rgb(5.098039%,33.333333%,63.137255%);fill-opacity:1;" d="M 401.851562 224.566406 L 418.621094 224.566406 L 418.761719 221.898438 L 419.648438 218.457031 L 420.207031 213.519531 L 394.074219 213.519531 L 392.523438 214.261719 L 391.492188 215.429688 L 390.164062 216.484375 L 389.632812 217.652344 L 389.132812 218.652344 L 382.246094 250.75 L 382.109375 254.636719 L 382.246094 257.691406 L 383.136719 258.664062 L 384.21875 260.050781 L 386.21875 261.046875 L 428.035156 261.046875 L 441.449219 193.023438 L 429.507812 193.023438 L 418.152344 249.277344 L 396.019531 249.222656 L 395.578125 247.816406 L 396.464844 245.03125 L 397.046875 241.585938 L 397.933594 239.394531 L 398.9375 234.230469 L 399.964844 229.507812 L 400.90625 226.035156 L 401.851562 224.566406 "/>
<path style=" stroke:none;fill-rule:nonzero;fill:rgb(5.098039%,33.333333%,63.137255%);fill-opacity:1;" d="M 448.292969 192.027344 L 455.261719 192.03125 L 455.121094 193.96875 L 452.726562 193.992188 L 450.8125 202.882812 L 448.335938 202.882812 L 450.25 193.992188 L 447.855469 193.992188 L 448.292969 192.027344 "/>
<path style=" stroke:none;fill-rule:nonzero;fill:rgb(92.54902%,14.509804%,15.294118%);fill-opacity:1;" d="M 252.960938 274.441406 L 281.503906 274.441406 L 279.175781 282.769531 L 269.675781 282.769531 L 262.402344 315.3125 L 253.460938 315.3125 L 260.964844 282.328125 L 251.074219 282.328125 L 252.960938 274.441406 "/>
<path style=" stroke:none;fill-rule:nonzero;fill:rgb(92.54902%,14.509804%,15.294118%);fill-opacity:1;" d="M 285.558594 280.726562 L 287.019531 271.996094 L 294.949219 271.996094 L 293.003906 280.726562 "/>
<path style=" stroke:none;fill-rule:nonzero;fill:rgb(92.54902%,14.509804%,15.294118%);fill-opacity:1;" d="M 284.503906 284.828125 L 292.449219 284.828125 L 285.558594 315.3125 L 278.0625 315.3125 L 284.503906 284.828125 "/>
<path style=" stroke:none;fill-rule:nonzero;fill:rgb(92.54902%,14.509804%,15.294118%);fill-opacity:1;" d="M 299.777344 284.828125 L 293.003906 315.3125 L 300.777344 315.3125 C 300.777344 315.3125 305.234375 294.640625 305.332031 293.597656 C 305.761719 292.226562 307.160156 292.097656 307.160156 292.097656 L 317.105469 292.097656 C 317.105469 292.097656 318.140625 292.214844 318.105469 292.710938 C 318.070312 293.210938 317.078125 298.101562 317.078125 298.101562 L 313.691406 315.3125 L 321.992188 315.3125 L 325.960938 293.65625 L 327.460938 291.65625 L 338.375 291.6875 L 338.847656 292.714844 L 334.847656 315.3125 L 342.320312 315.3125 L 348.675781 287.714844 L 347.648438 285.742188 L 345.675781 284.828125 L 331.820312 284.828125 C 331.820312 284.828125 330.410156 284.828125 329.875 285.707031 C 329.011719 286.253906 327.933594 287.6875 327.933594 287.6875 L 326.9375 287.699219 C 326.9375 287.699219 327.019531 286.730469 326.488281 285.773438 C 325.960938 284.8125 324.492188 284.828125 324.492188 284.828125 L 310.746094 284.828125 L 308.160156 286.714844 C 308.160156 286.714844 307.253906 287.171875 307.246094 286.6875 C 307.238281 286.203125 307.21875 284.828125 307.21875 284.828125 Z M 299.777344 284.828125 "/>
<path style=" stroke:none;fill-rule:nonzero;fill:rgb(92.54902%,14.509804%,15.294118%);fill-opacity:1;" d="M 352.035156 315.3125 L 379.191406 315.3125 L 380.277344 308.457031 L 358.507812 308.457031 L 358.507812 306.871094 L 361.476562 292.601562 L 362.507812 291.628906 L 376.277344 291.628906 L 377.277344 292.65625 L 377.191406 294.039062 L 376.75 295.628906 L 376.277344 297.515625 L 363.449219 297.570312 L 362.976562 302.542969 L 383.164062 302.515625 L 384.164062 298.628906 L 385.078125 293.628906 L 385.632812 287.1875 L 385.078125 285.800781 L 383.246094 284.828125 L 358.535156 284.828125 L 356.507812 286.160156 L 354.589844 287.742188 L 353.59375 290.128906 L 349.675781 308.957031 L 349.675781 313.371094 L 350.621094 314.34375 L 352.035156 315.3125 "/>
<path style=" stroke:none;fill-rule:nonzero;fill:rgb(92.54902%,14.509804%,15.294118%);fill-opacity:1;" d="M 399.492188 292.15625 C 398.992188 292.628906 398.933594 293.1875 398.933594 293.1875 L 398.964844 296.65625 L 417.761719 297.070312 L 419.621094 297.625 L 420.648438 299.597656 L 420.59375 303.570312 L 419.59375 308.34375 L 418.207031 310.957031 L 417.621094 312.925781 C 417.621094 312.925781 416.792969 314.285156 416.289062 314.398438 C 415.789062 314.84375 414.707031 315.3125 414.707031 315.3125 L 386.164062 315.3125 L 387.191406 308.402344 L 409.378906 308.402344 L 410.265625 306.984375 L 410.734375 305.429688 L 410.820312 303.515625 C 410.820312 303.515625 411.234375 302.515625 410.734375 302.515625 C 410.238281 302.515625 393.105469 302.515625 393.105469 302.515625 L 391.078125 302.515625 L 390.132812 302.011719 L 390.050781 300.957031 L 390.078125 295.65625 L 390.605469 292.65625 L 391.132812 289.742188 L 392.046875 287.742188 L 393.105469 286.6875 L 394.105469 285.714844 L 395.578125 284.828125 L 423.535156 284.828125 L 422.675781 291.65625 L 400.847656 291.65625 C 400.847656 291.65625 399.992188 291.6875 399.492188 292.15625 Z M 399.492188 292.15625 "/>
<path style=" stroke:none;fill-rule:nonzero;fill:rgb(5.098039%,33.333333%,63.137255%);fill-opacity:1;" d="M 457.183594 192.269531 L 459.554688 192.269531 L 461.050781 199.457031 L 465.46875 192.28125 L 467.582031 192.28125 L 465.59375 202.898438 L 463.597656 202.898438 L 465.011719 196.683594 L 461.125 202.898438 L 459.207031 202.898438 L 458.136719 196.726562 L 456.714844 202.898438 L 454.761719 202.898438 "/>
</g>
</svg>
