<?xml version="1.0" encoding="UTF-8"?>
<!DOCTYPE svg PUBLIC "-//W3C//DTD SVG 1.1//EN" "http://www.w3.org/Graphics/SVG/1.1/DTD/svg11.dtd">
<svg xmlns="http://www.w3.org/2000/svg" version="1.1" width="200px" height="200px" style="shape-rendering:geometricPrecision; text-rendering:geometricPrecision; image-rendering:optimizeQuality; fill-rule:evenodd; clip-rule:evenodd" xmlns:xlink="http://www.w3.org/1999/xlink">
<g><path style="opacity:1" fill="#4ec2f5" d="M -0.5,-0.5 C 66.1667,-0.5 132.833,-0.5 199.5,-0.5C 199.5,66.1667 199.5,132.833 199.5,199.5C 132.833,199.5 66.1667,199.5 -0.5,199.5C -0.5,132.833 -0.5,66.1667 -0.5,-0.5 Z"/></g>
<g><path style="opacity:1" fill="#e5282a" d="M 132.5,17.5 C 125.928,32.3212 119.595,47.3212 113.5,62.5C 103.495,58.501 93.4948,58.501 83.5,62.5C 77.1679,47.1716 70.8346,31.8383 64.5,16.5C 87.4235,6.97281 110.09,7.30614 132.5,17.5 Z"/></g>
<g><path style="opacity:1" fill="#fbfafa" d="M 64.5,16.5 C 70.8346,31.8383 77.1679,47.1716 83.5,62.5C 74.2415,67.4239 66.9081,74.4239 61.5,83.5C 46.1773,77.5065 30.8439,71.5065 15.5,65.5C 25.5218,42.8116 41.8551,26.4782 64.5,16.5 Z"/></g>
<g><path style="opacity:1" fill="#fbfbfb" d="M 132.5,17.5 C 153.861,26.0211 169.694,40.6877 180,61.5C 180.49,62.7932 180.657,64.1266 180.5,65.5C 165.613,71.7768 150.613,77.7768 135.5,83.5C 130.116,74.4495 122.783,67.4495 113.5,62.5C 119.595,47.3212 125.928,32.3212 132.5,17.5 Z"/></g>
<g><path style="opacity:1" fill="#4ec2f4" d="M 113.5,62.5 C 122.783,67.4495 130.116,74.4495 135.5,83.5C 138.166,93.4977 138.166,103.498 135.5,113.5C 131.195,123.805 123.861,131.139 113.5,135.5C 103.631,139.386 93.7974,139.386 84,135.5C 83.6174,136.056 83.1174,136.389 82.5,136.5C 73.4495,131.116 66.4495,123.783 61.5,114.5C 60.2643,109.389 59.2643,104.222 58.5,99C 59.0543,93.729 60.0543,88.5624 61.5,83.5C 66.9081,74.4239 74.2415,67.4239 83.5,62.5C 93.4948,58.501 103.495,58.501 113.5,62.5 Z"/></g>
<g><path style="opacity:1" fill="#e5282a" d="M 15.5,65.5 C 30.8439,71.5065 46.1773,77.5065 61.5,83.5C 60.0543,88.5624 59.0543,93.729 58.5,99C 59.2643,104.222 60.2643,109.389 61.5,114.5C 46.1789,120.268 31.1789,126.601 16.5,133.5C 11.2138,122.21 8.88046,110.21 9.5,97.5C 9.06328,86.3517 11.0633,75.685 15.5,65.5 Z"/></g>
<g><path style="opacity:1" fill="#e5282a" d="M 180.5,65.5 C 185.716,75.764 188.049,86.764 187.5,98.5C 187.834,110.833 185.5,122.5 180.5,133.5C 165.382,127.108 150.382,120.441 135.5,113.5C 138.166,103.498 138.166,93.4977 135.5,83.5C 150.613,77.7768 165.613,71.7768 180.5,65.5 Z"/></g>
<g><path style="opacity:1" fill="#fbfbfb" d="M 61.5,114.5 C 66.4495,123.783 73.4495,131.116 82.5,136.5C 76.7768,151.613 70.7768,166.613 64.5,181.5C 41.5,172.5 25.5,156.5 16.5,133.5C 31.1789,126.601 46.1789,120.268 61.5,114.5 Z"/></g>
<g><path style="opacity:1" fill="#fbfbfb" d="M 135.5,113.5 C 150.382,120.441 165.382,127.108 180.5,133.5C 171.509,156.491 155.509,172.491 132.5,181.5C 126.168,166.172 119.835,150.838 113.5,135.5C 123.861,131.139 131.195,123.805 135.5,113.5 Z"/></g>
<g><path style="opacity:1" fill="#e5282a" d="M 113.5,135.5 C 119.835,150.838 126.168,166.172 132.5,181.5C 109.805,190.703 87.1387,190.703 64.5,181.5C 70.7768,166.613 76.7768,151.613 82.5,136.5C 83.1174,136.389 83.6174,136.056 84,135.5C 93.7974,139.386 103.631,139.386 113.5,135.5 Z"/></g>
</svg>
